<?xml version="1.0" encoding="UTF-8" standalone="no"?>
<!-- Created with Inkscape (http://www.inkscape.org/) -->

<svg
   xmlns:dc="http://purl.org/dc/elements/1.1/"
   xmlns:cc="http://creativecommons.org/ns#"
   xmlns:rdf="http://www.w3.org/1999/02/22-rdf-syntax-ns#"
   xmlns:svg="http://www.w3.org/2000/svg"
   xmlns="http://www.w3.org/2000/svg"
   xmlns:sodipodi="http://sodipodi.sourceforge.net/DTD/sodipodi-0.dtd"
   xmlns:inkscape="http://www.inkscape.org/namespaces/inkscape"
   width="210mm"
   height="297mm"
   viewBox="0 0 210 297"
   version="1.1"
   id="svg8"
   inkscape:version="0.92.4 (5da689c313, 2019-01-14)"
   sodipodi:docname="logo.svg">
  <defs
     id="defs2" />
  <sodipodi:namedview
     id="base"
     pagecolor="#ffffff"
     bordercolor="#666666"
     borderopacity="1.0"
     inkscape:pageopacity="0.0"
     inkscape:pageshadow="2"
     inkscape:zoom="1.3024935"
     inkscape:cx="646.45741"
     inkscape:cy="879.12357"
     inkscape:document-units="mm"
     inkscape:current-layer="layer1"
     showgrid="false"
     inkscape:snap-grids="true"
     inkscape:window-width="1920"
     inkscape:window-height="1013"
     inkscape:window-x="-9"
     inkscape:window-y="29"
     inkscape:window-maximized="1"
     showguides="true"
     inkscape:guide-bbox="true">
    <sodipodi:guide
       position="146.46106,197.24507"
       orientation="0,1"
       id="guide21"
       inkscape:locked="false" />
    <sodipodi:guide
       position="177.54087,193.18235"
       orientation="0,1"
       id="guide23"
       inkscape:locked="false" />
    <sodipodi:guide
       position="161.08685,247.0134"
       orientation="0,1"
       id="guide25"
       inkscape:locked="false" />
    <sodipodi:guide
       position="160.68058,251.27925"
       orientation="0,1"
       id="guide27"
       inkscape:locked="false" />
  </sodipodi:namedview>
  <metadata
     id="metadata5">
    <rdf:RDF>
      <cc:Work
         rdf:about="">
        <dc:format>image/svg+xml</dc:format>
        <dc:type
           rdf:resource="http://purl.org/dc/dcmitype/StillImage" />
        <dc:title />
      </cc:Work>
    </rdf:RDF>
  </metadata>
  <g
     inkscape:label="Layer 1"
     inkscape:groupmode="layer"
     id="layer1">
    <rect
       style="fill:#ccffaa;stroke-width:0.21599431"
       id="rect3719"
       width="49.605541"
       height="50.325851"
       x="83.494431"
       y="-4.904119"
       transform="rotate(32.279952)"
       ry="14.571928" />
    <path
       id="path3717"
       style="fill:#ffcc00;stroke-width:0.3248013"
       transform="rotate(32.279952)"
       sodipodi:type="arc"
       sodipodi:cx="108.2972"
       sodipodi:cy="20.258806"
       sodipodi:rx="24.852442"
       sodipodi:ry="25.014536"
       sodipodi:start="0"
       sodipodi:end="4.2120259"
       d="M 133.14964,20.258806 A 24.852442,25.014536 0 0 1 112.42309,44.926219 24.852442,25.014536 0 0 1 84.814685,28.449151 24.852442,25.014536 0 0 1 96.37439,-1.6891585 L 108.2972,20.258806 Z" />
    <path
       style="fill:#ffd42a;stroke-width:0.37049377"
       d="m 87.713283,48.338266 a 2.3889426,2.3563985 12.429203 0 0 -2.369595,1.870286 l -0.0052,-6.87e-4 -0.002,0.02992 a 2.3889426,2.3563985 12.429203 0 0 -0.003,0.01179 2.3889426,2.3563985 12.429203 0 0 -0.03616,0.533434 l -1.644102,23.106903 4.699567,0.89135 1.684736,-23.682069 -0.0041,-6.5e-4 a 2.3889426,2.3563985 12.429203 0 0 -1.914591,-2.718509 2.3889426,2.3563985 12.429203 0 0 -0.40554,-0.04177 z"
       id="rect31"
       inkscape:connector-curvature="0" />
    <path
       inkscape:connector-curvature="0"
       id="path91"
       d="m 107.30258,85.736987 a 2.3563985,2.3889426 40.423041 0 0 -0.53922,-2.970217 l 0.003,-0.0043 -0.0255,-0.0158 a 2.3563985,2.3889426 40.423041 0 0 -0.009,-0.0082 2.3563985,2.3889426 40.423041 0 0 -0.45406,-0.282309 l -19.631647,-12.297579 -2.992927,3.73133 20.120454,12.603427 0.002,-0.0033 a 2.3563985,2.3889426 40.423041 0 0 3.2991,-0.414576 2.3563985,2.3889426 40.423041 0 0 0.22724,-0.338484 z"
       style="fill:#ffd42a;stroke-width:0.37049377" />
    <text
       xml:space="preserve"
       style="font-style:normal;font-variant:normal;font-weight:normal;font-stretch:normal;font-size:45.6855278px;line-height:1.25;font-family:'Codec Cold Trial';-inkscape-font-specification:'Codec Cold Trial';letter-spacing:0px;word-spacing:0px;fill:#000000;fill-opacity:1;stroke:none;stroke-width:1.14213824"
       x="118.79069"
       y="89.634422"
       id="text95"
       transform="scale(0.89895324,1.1124049)"><tspan
         sodipodi:role="line"
         id="tspan93"
         x="118.79069"
         y="89.634422"
         style="font-style:normal;font-variant:normal;font-weight:normal;font-stretch:normal;font-family:'Codec Cold Trial';-inkscape-font-specification:'Codec Cold Trial';fill:#ffd42a;stroke-width:1.14213824">Nearby</tspan></text>
  </g>
</svg>
